<svg xmlns="http://www.w3.org/2000/svg" width="64" height="64" viewBox="0 0 64 64" fill="none">
  <rect x="6" y="6" width="52" height="52" rx="12" fill="#0A66C2"/>
  <path d="M18.2 24.7C20.9 24.7 23.1 22.5 23.1 19.8C23.1 17.1 20.9 14.9 18.2 14.9C15.5 14.9 13.3 17.1 13.3 19.8C13.3 22.5 15.5 24.7 18.2 24.7Z" fill="#FFFDF7"/>
  <path d="M13.9 28.8H22.4V50.6H13.9V28.8Z" fill="#FFFDF7"/>
  <path d="M27.7 28.8H35.9V31.8H36C37.2 29.6 40.1 27.4 44.3 27.4C53 27.4 54.6 33.1 54.6 40.5V50.6H46.1V41.7C46.1 37.5 46 32.2 40.4 32.2C34.7 32.2 33.8 36.6 33.8 41.4V50.6H25.3V28.8H27.7Z" fill="#FFFDF7"/>
</svg>
